<svg xmlns="http://www.w3.org/2000/svg" viewBox="0 0 205.17 256.81"><title>Asset 1</title><g id="Layer_2" data-name="Layer 2"><g id="Text"><path d="M143.28,122.81h48.6c7.18,0,13.29-4.82,13.29-12V15.2C205.17,8,198.06-.92,190.88.08H.17L0,244.06c0,7.18,4.82,12.75,12,12.75H96.32V186.43a2.4,2.4,0,0,1,2.4-2.41h5.64a2.41,2.41,0,0,1,2.41,2.41l.4,70.38h98V134.05H142.28a2.41,2.41,0,0,1-2.41-2.41v-5.42A3.42,3.42,0,0,1,143.28,122.81ZM107.49,65.89A5.51,5.51,0,1,1,101,59.42,5.5,5.5,0,0,1,107.49,65.89Z"/></g></g></svg>